<svg id="Layer_1" data-name="Layer 1" xmlns="http://www.w3.org/2000/svg" viewBox="0 0 226.02 200.2"><defs><style>.cls-1{fill:#da5a50;}</style></defs><title>logo</title><path class="cls-1" d="M277.13,195.59c-.42,4.2-.83,8.25-1.22,12.31s-.74,8-1.11,12.15a14.44,14.44,0,0,0-4.12-3.9c-1.58-1-2.27-.8-2.92,1a14.79,14.79,0,0,0-.72,4.48,44.24,44.24,0,0,0,0,5.15c.22,3-.68,5.74-1.56,8.7l-5-5.83q-1.51-1.78-3.05-3.55c-.83-1-1.1-1-1.65.18-1,2.09-1.66,4.32-2.47,6.49a42.73,42.73,0,0,1-2,4.62,11.48,11.48,0,0,1-2.57,3.43,15.41,15.41,0,0,0-3.51,4.64c-1.15-1.72-2.14-3.41-3.38-4.92-1.77-2.19-2-2.24-3.9-.21-3.15,3.35-5.91,7-8.95,10.49-.76.87-1.59,1.68-2.4,2.51a1.07,1.07,0,0,1-1.75-.07,29.3,29.3,0,0,1-3.19-4.63c-.56-.87-1.14-1.73-1.67-2.63a1,1,0,0,0-1.59-.42c-1.35.78-2.7,1.55-4,2.35a60.86,60.86,0,0,1-29.51,8.41c-11.42.38-22.62-1.24-33.71-3.75A122.45,122.45,0,0,1,128,245c-.68-.31-.89-.11-1.12.49-1.28,3.27-2.6,6.52-3.88,9.79-.31.78-.48,1-1.21.25-4.79-5.2-9.63-10.36-14.46-15.52-1.31-1.41-2.31-1.37-3.53.17a20.8,20.8,0,0,0-2.92,5.87c-.38.06-.45-.28-.58-.48a164.64,164.64,0,0,1-9-15.29A12.13,12.13,0,0,1,89.88,226a1.48,1.48,0,0,0-1.76-1.41c-2.78.21-4.44,1.92-5.63,4.26-.31.6-.21,1.66-1.11,1.65s-1.12-1-1.45-1.62a48.9,48.9,0,0,1-3.89-12c-.18-.91-.53-1.22-1.4-1.21a7.89,7.89,0,0,0-4.89,1.84V201.79a4.63,4.63,0,0,0-3.65-5,7.72,7.72,0,0,0-3.07-.48c-1.28.13-1.48-.51-1.41-1.55a64.65,64.65,0,0,1,1.27-8.65A103.26,103.26,0,0,1,66.71,171c.33-.89,0-1.37-.84-1.62a6,6,0,0,0-2.85.1c-.69.13-1.08,0-.9-.82,1.53-7.46,2.84-15,5.07-22.28.06-.19.14-.37.21-.56.56-1.4.56-1.4-1-1.87a31.72,31.72,0,0,1-4.71-1.75c-1.68-.84-1.81-1.18-1-2.88a36.5,36.5,0,0,1,4.86-7,48.23,48.23,0,0,1,6.27-6.43,20.62,20.62,0,0,1,2.2-1.38c-3.77-6.16-5.13-13.05-6.21-20a42.71,42.71,0,0,1-.48-13,19.6,19.6,0,0,1,10.21-15,10.38,10.38,0,0,1,3.53-1.1,5.09,5.09,0,0,1,5.13,2.16A15.07,15.07,0,0,1,88,80.86c.36.85.71,1.7,1.07,2.54,1.33,3.14,3.88,3.75,6.64,1.69,16.07-11.94,33.59-20.92,53.07-25.87a92.29,92.29,0,0,1,26.94-2.93,120,120,0,0,1,22.44,3.52,151.91,151.91,0,0,1,48.45,20.34,62.1,62.1,0,0,1,6.22,4.49c.75.63,1.08.51,1.59-.26a20.45,20.45,0,0,1,4.24-4.71c5.38-4.34,11.18-3.55,15.2,2.11a25.19,25.19,0,0,1,4,10.67,39,39,0,0,1-1.1,18.71,15.56,15.56,0,0,1-2.37,4.55,66.34,66.34,0,0,0-4.54,6.91,1.27,1.27,0,0,0,.26,1.9q5.9,5.46,11.68,11c1.41,1.35,2.67,2.86,4.06,4.24.59.59.37.78-.24,1.05-3,1.35-5.93,2.77-8.94,4.07-.93.4-1.11.77-.77,1.75,2.38,7,4.69,14,7.06,21,.3.89.21,1.19-.8,1.12-1.27-.08-2.56,0-3.83,0-1-.06-1.25.28-1,1.23,1,4.4,2,8.8,3,13.2.95,4.16,1.91,8.32,3.05,12.44.49,1.76-.2,2.4-2,1.93A24.36,24.36,0,0,1,277.13,195.59ZM77.31,142.4A6.83,6.83,0,0,0,76,144.69c-2.49,6.44-4.33,13.1-6.27,19.72-.19.66,0,.86.6.94a8.22,8.22,0,0,1,3.15,1.09,1.91,1.91,0,0,1,.92,2.64A136.29,136.29,0,0,0,70.11,184,36.7,36.7,0,0,0,69,189.9c-.13,1.56,0,1.68,1.43,1.06.47-.22.93-.45,1.41-.64,2.18-.86,3-.32,3,2q0,6.66,0,13.32V207a7.35,7.35,0,0,1,4.26-1.71c.66-.06,1.36-.07,1.48.94.27,2.42.58,4.84,1,7.24A30.08,30.08,0,0,0,83,219.56c.13.33.23.8.6.82s.43-.49.59-.79.15-.45.25-.67a6.5,6.5,0,0,1,4.49-3.81,1.76,1.76,0,0,1,2.42,1.69,10.41,10.41,0,0,0,1,2.93,104.76,104.76,0,0,0,5.51,9.81c1.06,1.73,2.14,3.43,3.32,5.31.32-.79.54-1.37.79-1.95a14.23,14.23,0,0,1,2-3.65c1.1-1.3,2-1.36,3.2-.13,2.38,2.53,4.72,5.1,7.09,7.64l6.72,7.16a2.23,2.23,0,0,0,.68-1.2c1.13-2.81,2.27-5.62,3.36-8.45.26-.67.52-.8,1.22-.53a172.82,172.82,0,0,0,24.95,7.14,148.28,148.28,0,0,0,26.46,3.36,63.44,63.44,0,0,0,20.54-3c6.92-2.12,13.26-5.46,19.53-9,3.21-1.82,2.7-1.72,4.62,1.23a32.53,32.53,0,0,0,3.21,4.76c.55.59,1,.67,1.59,0s1.33-1.39,1.93-2.13c2.54-3.14,5-6.33,7.58-9.45,1.78-2.18,2.24-2.16,3.93.07,1,1.32,1.91,2.71,2.93,4.15a13,13,0,0,1,2.47-3.33c2.39-2,3.39-4.68,4.23-7.49.77-2.56,1.43-5.15,2.21-7.7.45-1.45.79-1.48,1.74-.36,2.15,2.52,4.32,5,6.46,7.57.44.52.7.79.95-.13a22.39,22.39,0,0,0,1.12-6.81,28.5,28.5,0,0,1,.53-8.59c.57-2.07,1.37-2.33,3.16-1.18a28.68,28.68,0,0,1,3.54,3c.18-2.33.13-4.61.19-6.88.08-3.68.23-7.35.35-11,0-.76.1-1.26,1-.63a10.65,10.65,0,0,0,2.93,1.33c.59.16,1.2.39,1.69-.12s.26-1.12.1-1.69c-.32-1.12-.65-2.22-.94-3.34-1.74-6.72-3.46-13.45-5.22-20.16-.21-.78-.09-1,.71-1,1.12.05,2.24,0,3.36,0,1.42,0,1.44,0,.89-1.33A162.51,162.51,0,0,0,266.8,145c-.42-.76-.41-1.09.45-1.46,2.64-1.14,5.22-2.41,7.85-3.56.9-.39,1-.66.32-1.44q-6-6.49-11.83-13.06c-2.55-2.84-2.54-2.87-.18-6,1.4-1.85,3-3.58,4.24-5.5A29.83,29.83,0,0,0,272.48,98a14.79,14.79,0,0,0-1.67-7.64c-2.21-4-6.28-5-10.05-2.46A19.88,19.88,0,0,0,257,91.37c-.81.91-1.26,2.67-2.23,2.75s-2-1.23-3.06-1.91a178.09,178.09,0,0,0-61.91-25.67,76.13,76.13,0,0,0-23.7-1.42,109.08,109.08,0,0,0-29.43,7.77A189.72,189.72,0,0,0,94.41,97.17c-2,1.46-4.94,2-6-1.51-.22-.73-.55-1.42-.81-2.13a40.85,40.85,0,0,0-2.34-5.24c-2.09-3.77-7.83-2.9-9.27.36s-2.7,6.48-2.68,10.09a36.85,36.85,0,0,0,1.24,8.87A54.77,54.77,0,0,0,81,123.43c.33.54.69,1.06,1,1.58-.54.32-1.1.6-1.63.95a44.42,44.42,0,0,0-8,7.14,26.1,26.1,0,0,0-4,5.09c-.46.84-.33,1.44.59,1.81.59.24,1.18.48,1.78.69C72.83,141.41,75,141.82,77.31,142.4Z" transform="translate(-60.25 -56.21)"/><path class="cls-1" d="M179.2,170c0-3.4,0-6.8,0-10.2a1.23,1.23,0,0,1,.95-1.37c2.43-.91,4.8-2,7.25-2.84,4.51-1.55,7.61-4.76,10.56-8.33s2.95-7.76,2.29-12a24.08,24.08,0,0,0-1.52-5.77,10.31,10.31,0,0,0-7.54-6.23,3.22,3.22,0,0,0-1.66,0,39.77,39.77,0,0,1-21.29,0,22.08,22.08,0,0,0-3.43-.55,8.11,8.11,0,0,0-6.83,2.78c-6.1,6.27-7,16.18-1.85,22.82,3.44,4.45,7.64,7.92,13.24,9.37,1.43.37,2.84.82,4.28,1.15.55.13.84.29.82.92q-.24,7.19-.44,14.37c0,2-.12,4-.15,6a2,2,0,0,1-.69,1.56c-2.09,1.87-4.21,3.69-6.46,5.36-3.58,2.68-7.8,3.58-12.08,4.19a36.28,36.28,0,0,1-12.16-.48c-5.45-1.07-8.73-4.58-10.56-9.58a43.55,43.55,0,0,1-2.6-19.3,88.16,88.16,0,0,1,3.58-19.38,100.23,100.23,0,0,1,10.45-22c3.89-6.19,9.74-9.76,16.57-11.66,13.53-3.77,27-3.55,40.23,1.43,4.86,1.83,8.49,5.22,11.44,9.35a73,73,0,0,1,11.76,27.3,79.78,79.78,0,0,1,2.1,21.16,52,52,0,0,1-2.14,12.36c-1.8,5.94-6.09,9.13-12.05,9.84a41.65,41.65,0,0,1-30.75-8,2.89,2.89,0,0,1-1.33-2.68C179.27,176.38,179.2,173.18,179.2,170Z" transform="translate(-60.25 -56.21)"/><path class="cls-1" d="M179.68,192c1.94,1.08,3.75,2.07,5.54,3.1a36.25,36.25,0,0,0,14,5.07c.55.06.65.3.6.77-.89,8.1-1.82,16.18-4.17,24-1.9,6.33-5.87,9-12.58,9.47-3.35.25-3.36.17-3.36-3.2V192Z" transform="translate(-60.25 -56.21)"/><path class="cls-1" d="M174.4,192v9.2c0,10.67,0,21.34,0,32,0,1-.29,1.29-1.27,1.3a18.44,18.44,0,0,1-8.83-1.77,10.66,10.66,0,0,1-5.16-5.9,67.22,67.22,0,0,1-3.22-13.1c-.7-4.18-1.2-8.38-1.61-12.59,0-.43-.21-.89.5-1,6.17-.61,11.44-3.57,16.69-6.55Z" transform="translate(-60.25 -56.21)"/></svg>